<?xml version="1.0" encoding="utf-8"?>
<!-- Generator: Adobe Illustrator 18.1.1, SVG Export Plug-In . SVG Version: 6.00 Build 0)  -->
<!DOCTYPE svg PUBLIC "-//W3C//DTD SVG 1.1//EN" "http://www.w3.org/Graphics/SVG/1.1/DTD/svg11.dtd">
<svg version="1.1" id="Layer_1" xmlns="http://www.w3.org/2000/svg" xmlns:xlink="http://www.w3.org/1999/xlink" x="0px" y="0px"
	 viewBox="0 0 600 600" enable-background="new 0 0 600 600" xml:space="preserve">
<g>
	<circle fill="#362885" cx="299.6" cy="300.1" r="295.1"/>
	<path fill="#FFFFFF" d="M299.6,600.1c-80.1,0-155.5-31.2-212.1-87.9c-56.7-56.7-87.9-132-87.9-212.1S30.8,144.6,87.4,87.9
		s132-87.9,212.1-87.9c80.1,0,155.5,31.2,212.1,87.9c56.7,56.7,87.9,132,87.9,212.1c0,80.1-31.2,155.5-87.9,212.1
		C455,568.9,379.7,600.1,299.6,600.1z M299.6,9.9c-77.5,0-150.4,30.2-205.2,85c-54.8,54.8-85,127.7-85,205.2s30.2,150.4,85,205.2
		c54.8,54.8,127.7,85,205.2,85c77.5,0,150.4-30.2,205.2-85c54.8-54.8,85-127.7,85-205.2s-30.2-150.4-85-205.2
		C449.9,40.1,377.1,9.9,299.6,9.9z"/>
</g>
<g>
	<g>
		<path fill="#6E51E5" d="M237.8,354.7L504.6,87.9C466.3,50.8,417.9,24.1,364,12L237.8,354.7z"/>
	</g>
	<g>
		<path fill="#5239AD" d="M262.4,342l318.1-132.4c-14.2-44-38.4-83.5-69.9-115.7L262.4,342z"/>
	</g>
	<g>
		<path fill="#9189E8" d="M355.6,10.3C337.5,6.8,318.7,5,299.6,5c-3.6,0-7.1,0.1-10.7,0.2L248.6,301L355.6,10.3z"/>
	</g>
	<g>
		<path fill="#FFFFFF" d="M582.2,215.1c-0.2-0.5-0.3-1-0.5-1.5c-0.1-0.3-0.2-0.5-0.2-0.8c-0.2-0.5-0.3-1.1-0.5-1.6
			c-0.2-0.5-0.3-1.1-0.5-1.6L262.4,342L510.6,93.8c-0.4-0.4-0.8-0.8-1.2-1.2c-0.3-0.3-0.6-0.6-0.9-0.9c-0.1-0.1-0.2-0.2-0.3-0.3
			c-0.1-0.1-0.2-0.2-0.3-0.3c-0.1-0.1-0.2-0.2-0.3-0.3c-0.6-0.6-1.2-1.2-1.8-1.8L234.4,360.5l0,0L505.8,89c-0.2-0.2-0.4-0.4-0.6-0.6
			c-0.2-0.2-0.4-0.4-0.6-0.6L237.8,354.7L364,12c-0.3-0.1-0.6-0.1-0.8-0.2c-0.1,0-0.3-0.1-0.4-0.1c-0.1,0-0.3-0.1-0.4-0.1
			c-0.1,0-0.3-0.1-0.4-0.1c-1-0.2-1.9-0.4-2.9-0.6c-1.1-0.2-2.2-0.4-3.3-0.7L248.6,301L288.9,5.2c-1.1,0-2.3,0.1-3.4,0.1
			c-1.1,0.1-2.3,0.1-3.4,0.2l-48.2,353.8l-0.7,1.8c-0.1,0.2,0,0.3,0.1,0.5c0.1,0.1,0.2,0.1,0.3,0.1c0.1,0,0.1,0,0.2,0L527.2,239
			l55.3-23c0,0,0,0,0,0c0,0,0-0.1,0-0.1C582.4,215.7,582.3,215.4,582.2,215.1z"/>
	</g>
</g>
<g>
	<g>
		<path fill="#9189E8" d="M190.1,456.5c-5.7-3.2-11.3-6.6-17-10.1c-3.1-1.9-6.2-3.9-9.2-5.9l-41.3,41.3l-36,36
			c17.6,17.2,41.6,32.3,63.1,44.7l2.6-6.7c0,0,0,0,0,0L190.1,456.5z"/>
	</g>
	<g>
		<g>
			<path fill="#FFFFFF" d="M332.4,354.8c0,0,58.9,65.7,38.8,106.7c-18.6,37.9-80.8,28-158.6-17.3c53.2,19.7,101.1,17.6,118.3-8.7
				c14.6-22.2,0.5-48.7-20.5-70.7c4.8,11.9,7.2,23.8,5.4,34c-4.9,27.9-34,38-64,31.1c-27.5-2.6-60.5-14.1-92.4-33.8
				c-19.6-12.1-36.5-26-49.9-40.2c-22.1-31-29.4-60.4-16.5-80.1c20.5-31.3,67.9-36.3,137.7-3.7c-86.4-46.2-153.4-45.7-178.6-7.3
				c-26,39.7,21,114.7,105.9,172l-69.6,69.6c0.8,0.8,1.6,1.6,2.4,2.4c0.8,0.8,1.6,1.6,2.4,2.4l70.5-70.5c3,2,6.1,3.9,9.2,5.9
				c5.7,3.5,11.3,6.9,17,10.1l-37.8,99.3c1,0.6,2,1.1,3,1.7c1,0.6,2,1.1,3,1.7l37.9-99.3c86.6,47.3,170.3,58.2,192.5,17.7
				C414,430.6,332.4,354.8,332.4,354.8z"/>
		</g>
		<g>
			<path fill="#FFFFFF" d="M221.2,307c-36.3-14-67.4-14.8-77.3,0.4c-11.7,18,10.1,52.6,49.9,82.4c-17.5-22.1-29.1-49.4-26.1-69.7
				C171.1,297.2,191.1,300.1,221.2,307z"/>
		</g>
	</g>
</g>
</svg>
